<?xml version="1.0" standalone="no"?>
<!DOCTYPE svg PUBLIC "-//W3C//DTD SVG 20010904//EN"
 "http://www.w3.org/TR/2001/REC-SVG-20010904/DTD/svg10.dtd">
<svg version="1.0" xmlns="http://www.w3.org/2000/svg"
 width="869.000000pt" height="869.000000pt" viewBox="0 0 869.000000 869.000000"
 preserveAspectRatio="xMidYMid meet">
<metadata>
Created by potrace 1.11, written by Peter Selinger 2001-2013
</metadata>
<g transform="translate(0.000000,869.000000) scale(0.100000,-0.100000)"
fill="#000000" stroke="none">
<path d="M1448 8319 c-7 -4 -10 -265 -10 -768 l0 -761 -391 -1 c-216 0 -412
-3 -437 -5 -175 -18 -327 -145 -383 -318 -19 -60 -19 -110 -20 -2876 0 -2255
2 -2826 13 -2870 42 -180 201 -327 378 -347 71 -8 7430 -9 7492 -1 195 26 353
181 387 378 9 53 9 5587 0 5649 -23 159 -137 300 -292 362 -59 23 -65 23 -480
26 -231 2 -425 5 -430 7 -7 2 -10 263 -10 765 0 756 0 761 -20 762 -64 3 -662
4 -672 1 -10 -3 -13 -166 -13 -768 l0 -764 -2200 0 c-2088 0 -2200 1 -2201 18
0 9 0 348 0 752 0 404 -2 742 -4 750 -4 13 -52 15 -351 15 -190 0 -350 -3
-356 -6z"/>
</g>
</svg>
